<?xml version="1.0" standalone="no"?>
<!DOCTYPE svg PUBLIC "-//W3C//DTD SVG 20010904//EN"
 "http://www.w3.org/TR/2001/REC-SVG-20010904/DTD/svg10.dtd">
<svg version="1.0" xmlns="http://www.w3.org/2000/svg"
 width="1564.000000pt" height="1094.000000pt" viewBox="0 0 1564.000000 1094.000000"
 preserveAspectRatio="xMidYMid meet">

<g transform="translate(0.000000,1094.000000) scale(0.100000,-0.100000)"
fill="#000000" stroke="none">
<path d="M9395 9741 c-5 -8 -442 -391 -894 -782 -430 -372 -656 -571 -659
-579 -2 -6 161 -11 420 -12 l423 -3 -3 -60 c-3 -64 -36 -216 -78 -355 -259
-861 -815 -1596 -1557 -2056 -164 -102 -490 -264 -504 -250 -3 2 14 63 36 134
62 197 54 290 -33 376 -43 43 -85 104 -121 176 -27 52 -27 59 -21 155 5 78 21
157 75 358 38 143 71 261 74 263 2 2 61 -11 131 -31 294 -80 504 -71 662 30
29 19 58 43 63 54 26 48 4 144 -40 175 -33 23 -138 21 -219 -5 -235 -74 -456
10 -568 215 -36 67 -39 69 -91 83 -70 17 -113 38 -175 85 -49 38 -53 39 -111
33 -291 -30 -474 -94 -641 -223 -160 -123 -294 -291 -294 -367 0 -19 -7 -24
-47 -29 -27 -4 -63 -12 -82 -18 -32 -10 -35 -9 -90 46 l-56 56 -194 -194 -194
-194 248 -261 c136 -144 252 -261 256 -261 5 0 99 77 209 172 225 192 210 165
136 245 -28 31 -29 33 -17 89 6 32 11 76 11 99 0 34 6 47 36 76 20 18 64 77
99 129 85 131 162 212 237 250 58 28 108 39 108 23 0 -5 -82 -266 -182 -582
l-182 -574 -210 -176 c-115 -97 -236 -197 -270 -224 -158 -123 -184 -157 -171
-225 7 -42 101 -142 132 -142 24 0 253 125 377 207 283 184 446 357 491 518
29 104 96 136 156 75 17 -16 66 -104 110 -194 l80 -165 -57 -200 -57 -200 -86
-20 c-128 -30 -307 -59 -438 -72 -139 -14 -590 -7 -714 11 -73 10 -94 10 -130
-2 l-44 -15 -3 -891 -2 -892 402 2 403 3 0 750 0 750 50 -3 c28 -2 127 -11
220 -20 l170 -17 3 -733 2 -732 385 0 385 0 0 740 0 740 23 9 c12 5 69 16 127
25 58 9 142 25 188 35 60 14 84 16 90 7 4 -6 9 -357 12 -781 l5 -770 398 -3
397 -2 0 67 c0 38 0 451 0 919 0 668 3 854 13 861 6 6 55 29 107 53 52 23 143
69 203 101 59 32 112 59 117 59 6 0 10 -375 10 -1020 -1 -561 2 -1025 5 -1030
4 -6 154 -10 391 -10 l384 0 0 1333 1 1332 91 100 c124 137 289 341 317 393 6
12 16 22 21 22 7 0 10 -575 10 -1590 l0 -1590 400 0 400 0 0 68 c0 37 1 1104
3 2372 l2 2305 265 5 c146 3 265 7 265 10 0 6 -136 128 -204 185 -20 16 -175
151 -346 300 -170 149 -377 329 -460 400 -82 71 -241 209 -352 307 -112 98
-209 178 -217 178 -8 0 -17 -4 -21 -9z m196 -459 c86 -75 287 -251 448 -390
160 -140 289 -258 286 -263 -4 -5 -57 -9 -120 -9 l-114 0 -16 -77 c-71 -329
-103 -450 -181 -681 -211 -628 -552 -1152 -1010 -1551 -473 -413 -1091 -716
-1817 -891 -170 -41 -539 -91 -578 -78 -7 2 36 24 97 47 801 317 1468 898
1909 1666 124 215 237 476 323 747 77 239 108 394 121 593 7 94 14 182 16 198
l5 27 -225 0 c-135 0 -225 4 -225 9 0 15 893 790 910 790 8 0 85 -61 171 -137z
m-4415 -2424 c11 -18 15 -100 6 -115 -13 -21 -51 -3 -54 26 -2 18 -10 27 -26
29 -30 4 -36 -16 -17 -61 36 -86 2 -150 -78 -146 -24 2 -48 -1 -54 -4 -18 -11
-27 12 -30 76 l-4 58 28 -3 c22 -2 29 -9 33 -33 4 -22 11 -31 28 -33 31 -5 36
17 16 78 -16 48 -16 54 -1 86 17 34 30 40 97 47 19 2 38 5 42 5 4 1 10 -4 14
-10z"/>
<path d="M6517 8466 c-101 -30 -202 -119 -249 -222 -19 -40 -23 -66 -23 -144
0 -85 3 -101 29 -155 144 -292 545 -289 685 5 23 48 26 68 26 155 0 95 -2 103
-34 162 -41 77 -113 146 -186 179 -68 31 -178 40 -248 20z"/>
<path d="M2116 2910 c-81 -14 -188 -73 -242 -133 -177 -196 -154 -525 49 -693
20 -16 86 -58 149 -93 268 -152 298 -178 298 -257 0 -137 -149 -224 -259 -151
-58 38 -81 89 -81 179 0 40 -4 79 -8 86 -7 9 -41 12 -138 10 l-129 -3 -3 -82
c-3 -90 16 -190 48 -252 32 -63 124 -155 189 -190 202 -107 434 -54 573 131
63 85 81 146 82 273 1 100 -1 115 -27 170 -30 63 -95 138 -162 185 -22 15
-105 62 -184 105 -79 43 -159 91 -177 107 -72 64 -86 202 -28 275 77 97 191
96 268 0 30 -38 31 -42 36 -170 l5 -132 135 0 135 0 0 140 c-1 160 -12 206
-75 304 -93 144 -279 222 -454 191z"/>
<path d="M4016 2909 c-63 -15 -157 -70 -212 -126 -72 -71 -112 -156 -124 -263
-13 -111 -13 -787 0 -865 22 -135 126 -273 250 -333 226 -109 482 -17 598 216
l37 76 3 453 c3 388 1 463 -13 516 -40 158 -179 294 -333 326 -62 13 -151 13
-206 0z m156 -269 c45 -13 103 -76 117 -128 7 -24 11 -185 11 -425 -1 -382 -1
-386 -24 -429 -31 -60 -93 -101 -149 -101 -54 0 -99 24 -141 76 l-31 39 0 427
0 427 27 41 c27 41 95 83 133 83 11 0 36 -5 57 -10z"/>
<path d="M5052 2905 c-67 -19 -97 -35 -160 -84 -62 -49 -105 -111 -137 -194
-24 -64 -24 -66 -26 -518 -2 -432 -1 -457 19 -516 54 -169 190 -285 362 -312
189 -30 377 73 467 257 36 71 37 79 41 198 l4 124 -135 0 -134 0 -5 -83 c-6
-123 -50 -192 -139 -217 -71 -21 -153 25 -190 105 -17 37 -19 72 -19 431 0
269 4 402 12 425 18 56 48 90 96 111 67 30 122 19 177 -37 50 -49 65 -92 65
-182 l0 -63 135 0 135 0 0 88 c0 157 -41 262 -141 357 -85 82 -164 115 -281
121 -64 3 -110 -1 -146 -11z"/>
<path d="M10118 2909 c-108 -25 -227 -117 -280 -215 -55 -102 -58 -130 -58
-599 0 -253 5 -448 11 -474 51 -221 276 -375 499 -341 146 23 267 115 337 257
37 75 38 81 42 200 l3 123 -136 0 -136 0 0 -67 c0 -92 -14 -136 -58 -182 -69
-73 -162 -74 -233 -2 -21 21 -42 54 -48 78 -7 27 -10 171 -9 434 l3 394 28 48
c57 97 170 114 251 39 46 -43 66 -97 66 -179 l0 -73 136 0 136 0 -3 118 c-4
113 -6 121 -42 195 -41 84 -110 160 -180 201 -84 49 -228 69 -329 45z"/>
<path d="M2714 2887 c-2 -7 -3 -69 -2 -138 l3 -124 153 -3 152 -3 0 -660 0
-660 138 3 137 3 3 657 2 657 153 3 152 3 0 135 0 135 -443 3 c-358 2 -444 0
-448 -11z"/>
<path d="M5803 2883 c-4 -9 -7 -368 -7 -798 l-1 -780 138 -3 137 -3 0 277 0
276 36 59 c19 33 39 59 43 59 8 0 51 -92 244 -515 32 -71 63 -136 69 -142 15
-18 312 -18 305 -1 -3 7 -103 220 -222 472 -190 402 -217 463 -208 485 5 14
52 94 105 176 224 354 276 440 272 447 -6 10 -255 10 -271 0 -6 -4 -90 -126
-186 -272 -109 -164 -178 -259 -181 -250 -3 8 -7 130 -8 270 l-3 255 -128 3
c-113 2 -128 1 -134 -15z"/>
<path d="M6757 2893 c-4 -3 -7 -66 -7 -139 l0 -133 153 -3 152 -3 3 -658 2
-658 138 3 137 3 3 657 2 657 153 3 152 3 0 135 0 135 -441 3 c-242 1 -444 -1
-447 -5z"/>
<path d="M7767 2893 c-4 -3 -7 -363 -7 -800 l0 -794 138 3 137 3 3 338 2 337
101 0 c105 0 139 -10 187 -54 54 -49 57 -61 62 -351 l5 -270 140 0 140 0 -4
280 c-4 313 -11 353 -75 455 -20 30 -36 59 -36 63 0 4 18 31 39 60 139 184
124 437 -36 595 -124 122 -198 142 -544 142 -135 0 -249 -3 -252 -7z m569
-305 c93 -64 108 -174 36 -260 -45 -53 -92 -68 -219 -68 l-113 0 0 181 0 181
128 -4 c121 -3 131 -5 168 -30z"/>
<path d="M9076 2883 c-6 -22 -83 -438 -211 -1153 -25 -140 -52 -291 -60 -336
-8 -44 -15 -84 -15 -88 0 -3 62 -5 138 -4 l137 3 8 60 c4 33 11 71 15 85 l7
25 155 0 154 0 7 -40 c4 -22 10 -61 13 -87 l7 -48 135 0 134 0 0 25 c0 14 -18
126 -40 248 -54 307 -131 745 -180 1037 -23 135 -46 255 -51 268 -8 22 -12 22
-178 22 -153 0 -170 -2 -175 -17z m188 -515 c15 -77 93 -634 89 -640 -6 -11
-201 -10 -208 1 -3 5 13 124 35 263 22 139 46 286 52 326 12 72 24 91 32 50z"/>
<path d="M10856 2891 c-4 -6 -8 -938 -6 -1548 l0 -43 135 0 135 0 0 278 0 279
38 53 c20 30 41 54 46 54 5 1 61 -114 126 -254 64 -140 133 -290 153 -332 l36
-78 151 0 c118 0 151 3 147 12 -3 7 -102 219 -221 471 -119 251 -216 463 -216
470 0 6 88 151 195 321 106 171 192 313 189 318 -3 4 -63 8 -134 8 l-128 0
-24 -28 c-12 -16 -93 -135 -178 -265 -85 -130 -160 -237 -167 -237 -9 0 -12
61 -13 256 0 141 -2 260 -6 265 -7 12 -251 12 -258 0z"/>
<path d="M11937 2892 c-5 -6 -11 -1272 -8 -1514 l1 -78 375 0 375 0 0 140 0
140 -237 2 -238 3 -3 198 -2 197 240 0 240 0 0 140 0 140 -237 2 -238 3 0 175
0 175 238 3 238 2 -3 138 -3 137 -367 3 c-202 1 -369 -1 -371 -6z"/>
<path d="M12901 2886 c-8 -10 -10 -226 -9 -797 l3 -784 135 0 135 0 3 338 2
337 99 0 c55 0 112 -5 128 -11 30 -11 88 -62 106 -94 8 -13 14 -112 17 -295
l5 -275 140 0 140 0 -3 280 c-4 317 -10 359 -74 456 -21 33 -38 62 -38 66 0 3
14 21 31 41 45 51 86 143 99 225 40 235 -118 462 -357 512 -95 20 -545 21
-562 1z m542 -282 c74 -38 112 -101 105 -175 -7 -65 -41 -114 -104 -145 -46
-23 -60 -24 -160 -22 l-109 3 -3 178 -2 177 120 0 c92 0 129 -4 153 -16z"/>
</g>
</svg>
