<svg xmlns="http://www.w3.org/2000/svg" viewBox="0 0 486.834 96.672">
  <defs>
    <style>
      .cls-1 {
        isolation: isolate;
      }

      .cls-2 {
        opacity: 0.75;
        mix-blend-mode: multiply;
      }

      .cls-3, .cls-5, .cls-7, .cls-8 {
        fill: none;
        stroke-linecap: round;
        stroke-linejoin: round;
      }

      .cls-3, .cls-7 {
        stroke: #191717;
      }

      .cls-3, .cls-5 {
        stroke-width: 8.308px;
      }

      .cls-4 {
        fill: #191717;
      }

      .cls-5, .cls-8 {
        stroke: #1a1818;
      }

      .cls-6 {
        fill: #fff;
      }

      .cls-7, .cls-8 {
        stroke-width: 8.053px;
      }

      .cls-9 {
        fill: #e8c800;
      }
    </style>
  </defs>
  <title>b33efbbf-fd01-4eb1-952d-8772bdaebb37</title>
  <g class="cls-1">
    <g id="Layer_1" data-name="Layer 1">
      <g id="Artwork_249" data-name="Artwork 249">
        <g>
          <g>
            <g class="cls-2">
              <g>
                <path class="cls-3" d="M41.681,38.152l-.217-16.927,10.443-.134.216,16.795c.049,3.815,2.044,5.412,4.809,5.376s4.721-1.551,4.673-5.279L61.385,20.97l10.443-.134.215,16.708c.134,10.48-5.912,14.68-15.083,14.8S41.812,48.325,41.681,38.152Z" transform="translate(-0.354 -4.566)"/>
                <path class="cls-3" d="M74.943,27.549l9.961-.128.038,2.938c1.6-1.775,3.422-3.553,7.064-3.6,5.792-.074,10.376,4.91,10.471,12.233v.088c.1,7.586-4.4,12.688-10.062,12.76a8.942,8.942,0,0,1-7.239-3.2L85.3,58.38l-9.961.128ZM92.825,39.337v-.088a4,4,0,1,0-7.986.1v.088a4,4,0,1,0,7.986-.1Z" transform="translate(-0.354 -4.566)"/>
                <path class="cls-3" d="M104.1,39.323v-.087c-.1-7.586,4.4-12.687,10.062-12.76a8.94,8.94,0,0,1,7.238,3.2l-.138-10.788,9.961-.128.411,32.011-9.961.128-.038-2.937c-1.6,1.774-3.422,3.553-7.064,3.6C108.782,51.632,104.2,46.647,104.1,39.323Zm17.638-.357v-.088a4,4,0,1,0-7.986.1v.088a4,4,0,1,0,7.986-.1Z" transform="translate(-0.354 -4.566)"/>
                <path class="cls-3" d="M133.655,43.944v-.088c-.061-4.779,3.458-7.5,9.031-7.571a18.681,18.681,0,0,1,5.672.8l0-.395c-.028-2.192-1.4-3.447-4.476-3.407a17.362,17.362,0,0,0-6.608,1.444l-1.84-6.6a27.4,27.4,0,0,1,10.07-1.884c4.871-.062,8.043.905,10.176,2.983,1.823,1.774,2.555,4.089,2.6,7.553l.175,13.638-9.961.128-.031-2.412a9.032,9.032,0,0,1-6.851,3.07C137,51.27,133.716,48.68,133.655,43.944ZM148.5,41.692l-.013-1.009a6.861,6.861,0,0,0-2.286-.365c-1.975.025-3.057,1.224-3.038,2.714v.088a2.224,2.224,0,0,0,2.312,2.295C147.235,45.392,148.533,43.972,148.5,41.692Z" transform="translate(-0.354 -4.566)"/>
                <path class="cls-3" d="M163.039,42.339l-.105-8.244-2.809.036-.1-7.674,2.809-.036-.077-6.007,9.961-.128.077,6.007,5.529-.071.1,7.674-5.529.071.078,6.051c.023,1.8.865,2.445,2.445,2.424a7.478,7.478,0,0,0,3.019-.784l.1,7.674a14.38,14.38,0,0,1-6.345,1.441C166.308,50.849,163.114,48.171,163.039,42.339Z" transform="translate(-0.354 -4.566)"/>
                <path class="cls-3" d="M180.016,38.305v-.088c-.092-7.147,4.972-12.651,12.169-12.743,8.513-.109,12.538,5.76,12.631,13.039.007.526.015,1.141-.022,1.667l-15.4.2a4.481,4.481,0,0,0,4.561,3.143c1.8-.023,3.28-.875,4.839-2.518l5.408,4.185a12.963,12.963,0,0,1-10.859,5.358C185.484,50.647,180.111,45.76,180.016,38.305ZM195.7,35.911c-.249-2.277-1.625-3.576-3.381-3.553-1.668.021-2.834,1.44-3.113,3.637Z" transform="translate(-0.354 -4.566)"/>
                <path class="cls-3" d="M227.638,38.658,215.8,18.987l11.5-.148,5.4,10.019,5.18-10.154,11.365-.146L237.9,38.4l.141,11.006-10.269.132Z" transform="translate(-0.354 -4.566)"/>
                <path class="cls-3" d="M249.566,37.368V37.28c-.087-6.753,5.456-12.613,13.354-12.714,7.854-.1,13.5,5.527,13.587,12.281v.087c.086,6.753-5.456,12.614-13.354,12.715C255.3,49.75,249.652,44.121,249.566,37.368Zm17.376-.223v-.088a4.09,4.09,0,0,0-4-4.2,3.968,3.968,0,0,0-3.809,4.215v.087a4.09,4.09,0,0,0,4,4.2A3.968,3.968,0,0,0,266.942,37.145Z" transform="translate(-0.354 -4.566)"/>
                <path class="cls-3" d="M278.662,40.723l-.2-15.787,9.961-.128.162,12.585c.026,2.061,1.27,3.229,2.762,3.21a2.957,2.957,0,0,0,2.811-3.282l-.162-12.585,9.961-.128.307,23.942-9.961.128-.041-3.2a9.17,9.17,0,0,1-7.279,3.865C281.933,49.408,278.731,46.116,278.662,40.723Z" transform="translate(-0.354 -4.566)"/>
                <path class="cls-3" d="M306.981,24.57l9.961-.128L317,29.266c1.319-3.262,3.485-5.4,7.438-5.271l.135,10.568-1.053.013c-4.213.054-6.42,2.407-6.353,7.713l.078,6.1-9.961.128Z" transform="translate(-0.354 -4.566)"/>
              </g>
              <g>
                <path class="cls-4" d="M41.681,38.152l-.217-16.927,10.443-.134.216,16.795c.049,3.815,2.044,5.412,4.809,5.376s4.721-1.551,4.673-5.279L61.385,20.97l10.443-.134.215,16.708c.134,10.48-5.912,14.68-15.083,14.8S41.812,48.325,41.681,38.152Z" transform="translate(-0.354 -4.566)"/>
                <path class="cls-4" d="M74.943,27.549l9.961-.128.038,2.938c1.6-1.775,3.422-3.553,7.064-3.6,5.792-.074,10.376,4.91,10.471,12.233v.088c.1,7.586-4.4,12.688-10.062,12.76a8.942,8.942,0,0,1-7.239-3.2L85.3,58.38l-9.961.128ZM92.825,39.337v-.088a4,4,0,1,0-7.986.1v.088a4,4,0,1,0,7.986-.1Z" transform="translate(-0.354 -4.566)"/>
                <path class="cls-4" d="M104.1,39.323v-.087c-.1-7.586,4.4-12.687,10.062-12.76a8.94,8.94,0,0,1,7.238,3.2l-.138-10.788,9.961-.128.411,32.011-9.961.128-.038-2.937c-1.6,1.774-3.422,3.553-7.064,3.6C108.782,51.632,104.2,46.647,104.1,39.323Zm17.638-.357v-.088a4,4,0,1,0-7.986.1v.088a4,4,0,1,0,7.986-.1Z" transform="translate(-0.354 -4.566)"/>
                <path class="cls-4" d="M133.655,43.944v-.088c-.061-4.779,3.458-7.5,9.031-7.571a18.681,18.681,0,0,1,5.672.8l0-.395c-.028-2.192-1.4-3.447-4.476-3.407a17.362,17.362,0,0,0-6.608,1.444l-1.84-6.6a27.4,27.4,0,0,1,10.07-1.884c4.871-.062,8.043.905,10.176,2.983,1.823,1.774,2.555,4.089,2.6,7.553l.175,13.638-9.961.128-.031-2.412a9.032,9.032,0,0,1-6.851,3.07C137,51.27,133.716,48.68,133.655,43.944ZM148.5,41.692l-.013-1.009a6.861,6.861,0,0,0-2.286-.365c-1.975.025-3.057,1.224-3.038,2.714v.088a2.224,2.224,0,0,0,2.312,2.295C147.235,45.392,148.533,43.972,148.5,41.692Z" transform="translate(-0.354 -4.566)"/>
                <path class="cls-4" d="M163.039,42.339l-.105-8.244-2.809.036-.1-7.674,2.809-.036-.077-6.007,9.961-.128.077,6.007,5.529-.071.1,7.674-5.529.071.078,6.051c.023,1.8.865,2.445,2.445,2.424a7.478,7.478,0,0,0,3.019-.784l.1,7.674a14.38,14.38,0,0,1-6.345,1.441C166.308,50.849,163.114,48.171,163.039,42.339Z" transform="translate(-0.354 -4.566)"/>
                <path class="cls-4" d="M180.016,38.305v-.088c-.092-7.147,4.972-12.651,12.169-12.743,8.513-.109,12.538,5.76,12.631,13.039.007.526.015,1.141-.022,1.667l-15.4.2a4.481,4.481,0,0,0,4.561,3.143c1.8-.023,3.28-.875,4.839-2.518l5.408,4.185a12.963,12.963,0,0,1-10.859,5.358C185.484,50.647,180.111,45.76,180.016,38.305ZM195.7,35.911c-.249-2.277-1.625-3.576-3.381-3.553-1.668.021-2.834,1.44-3.113,3.637Z" transform="translate(-0.354 -4.566)"/>
                <path class="cls-4" d="M227.638,38.658,215.8,18.987l11.5-.148,5.4,10.019,5.18-10.154,11.365-.146L237.9,38.4l.141,11.006-10.269.132Z" transform="translate(-0.354 -4.566)"/>
                <path class="cls-4" d="M249.566,37.368V37.28c-.087-6.753,5.456-12.613,13.354-12.714,7.854-.1,13.5,5.527,13.587,12.281v.087c.086,6.753-5.456,12.614-13.354,12.715C255.3,49.75,249.652,44.121,249.566,37.368Zm17.376-.223v-.088a4.09,4.09,0,0,0-4-4.2,3.968,3.968,0,0,0-3.809,4.215v.087a4.09,4.09,0,0,0,4,4.2A3.968,3.968,0,0,0,266.942,37.145Z" transform="translate(-0.354 -4.566)"/>
                <path class="cls-4" d="M278.662,40.723l-.2-15.787,9.961-.128.162,12.585c.026,2.061,1.27,3.229,2.762,3.21a2.957,2.957,0,0,0,2.811-3.282l-.162-12.585,9.961-.128.307,23.942-9.961.128-.041-3.2a9.17,9.17,0,0,1-7.279,3.865C281.933,49.408,278.731,46.116,278.662,40.723Z" transform="translate(-0.354 -4.566)"/>
                <path class="cls-4" d="M306.981,24.57l9.961-.128L317,29.266c1.319-3.262,3.485-5.4,7.438-5.271l.135,10.568-1.053.013c-4.213.054-6.42,2.407-6.353,7.713l.078,6.1-9.961.128Z" transform="translate(-0.354 -4.566)"/>
              </g>
            </g>
            <g>
              <g>
                <path class="cls-5" d="M39.486,35.957,39.269,19.03,49.712,18.9l.216,16.795c.049,3.815,2.044,5.412,4.809,5.376s4.721-1.551,4.673-5.279l-.219-17.014,10.443-.134.215,16.708c.134,10.48-5.912,14.68-15.083,14.8S39.617,46.13,39.486,35.957Z" transform="translate(-0.354 -4.566)"/>
                <path class="cls-5" d="M72.749,25.355l9.961-.128.038,2.938c1.6-1.775,3.422-3.553,7.064-3.6,5.792-.074,10.376,4.91,10.471,12.233v.088c.1,7.586-4.4,12.688-10.062,12.76a8.942,8.942,0,0,1-7.239-3.2l.125,9.734-9.961.128ZM90.63,37.142v-.088a4,4,0,1,0-7.986.1v.088a4,4,0,1,0,7.986-.1Z" transform="translate(-0.354 -4.566)"/>
                <path class="cls-5" d="M101.91,37.128v-.087c-.1-7.586,4.4-12.687,10.062-12.76a8.94,8.94,0,0,1,7.238,3.2l-.138-10.788,9.961-.128.411,32.011-9.961.128-.038-2.937c-1.6,1.774-3.422,3.553-7.064,3.6C106.588,49.437,102,44.452,101.91,37.128Zm17.638-.357v-.088a4,4,0,1,0-7.986.1v.088a4,4,0,1,0,7.986-.1Z" transform="translate(-0.354 -4.566)"/>
                <path class="cls-5" d="M131.461,41.749v-.088c-.061-4.779,3.458-7.5,9.031-7.571a18.681,18.681,0,0,1,5.672.8l0-.395c-.028-2.192-1.4-3.447-4.476-3.407a17.362,17.362,0,0,0-6.608,1.444l-1.84-6.6a27.4,27.4,0,0,1,10.07-1.884c4.871-.062,8.043.905,10.176,2.983,1.823,1.774,2.555,4.089,2.6,7.553l.175,13.638-9.961.128-.031-2.412a9.032,9.032,0,0,1-6.851,3.07C134.8,49.075,131.522,46.485,131.461,41.749ZM146.31,39.5l-.013-1.009a6.861,6.861,0,0,0-2.286-.365c-1.975.025-3.057,1.224-3.038,2.714v.088a2.224,2.224,0,0,0,2.312,2.295C145.041,43.2,146.339,41.777,146.31,39.5Z" transform="translate(-0.354 -4.566)"/>
                <path class="cls-5" d="M160.844,40.144l-.105-8.244-2.809.036-.1-7.674,2.809-.036-.077-6.007,9.961-.128L170.6,24.1l5.529-.071.1,7.674-5.529.071.078,6.051c.023,1.8.865,2.445,2.445,2.424a7.478,7.478,0,0,0,3.019-.784l.1,7.674a14.38,14.38,0,0,1-6.345,1.441C164.114,48.654,160.92,45.976,160.844,40.144Z" transform="translate(-0.354 -4.566)"/>
                <path class="cls-5" d="M177.821,36.11v-.088c-.092-7.147,4.972-12.651,12.169-12.743,8.513-.109,12.538,5.76,12.631,13.039.007.526.015,1.141-.022,1.667l-15.4.2a4.481,4.481,0,0,0,4.561,3.143c1.8-.023,3.28-.875,4.839-2.518L202,42.993a12.963,12.963,0,0,1-10.859,5.358C183.29,48.452,177.917,43.565,177.821,36.11ZM193.5,33.716c-.249-2.277-1.625-3.576-3.381-3.553-1.668.021-2.834,1.44-3.113,3.637Z" transform="translate(-0.354 -4.566)"/>
                <path class="cls-5" d="M225.443,36.463,213.6,16.792l11.5-.148,5.4,10.019,5.18-10.154,11.365-.146L235.711,36.2l.141,11.006-10.269.132Z" transform="translate(-0.354 -4.566)"/>
                <path class="cls-5" d="M247.371,35.173v-.088c-.087-6.753,5.456-12.613,13.354-12.714,7.854-.1,13.5,5.527,13.587,12.281v.087c.086,6.753-5.456,12.614-13.354,12.715C253.1,47.555,247.458,41.926,247.371,35.173Zm17.376-.223v-.088a4.09,4.09,0,0,0-4-4.2,3.968,3.968,0,0,0-3.809,4.215v.087a4.09,4.09,0,0,0,4,4.2A3.968,3.968,0,0,0,264.748,34.95Z" transform="translate(-0.354 -4.566)"/>
                <path class="cls-5" d="M276.467,38.528l-.2-15.787,9.961-.128.162,12.585c.026,2.061,1.27,3.229,2.762,3.21a2.957,2.957,0,0,0,2.811-3.282L291.8,22.542l9.961-.128.307,23.942-9.961.128-.041-3.2a9.17,9.17,0,0,1-7.279,3.865C279.739,47.213,276.537,43.921,276.467,38.528Z" transform="translate(-0.354 -4.566)"/>
                <path class="cls-5" d="M304.787,22.375l9.961-.128.062,4.824c1.319-3.262,3.485-5.4,7.438-5.271l.135,10.568-1.053.013c-4.213.054-6.42,2.407-6.353,7.713l.078,6.1-9.961.128Z" transform="translate(-0.354 -4.566)"/>
              </g>
              <g>
                <path class="cls-6" d="M39.486,35.957,39.269,19.03,49.712,18.9l.216,16.795c.049,3.815,2.044,5.412,4.809,5.376s4.721-1.551,4.673-5.279l-.219-17.014,10.443-.134.215,16.708c.134,10.48-5.912,14.68-15.083,14.8S39.617,46.13,39.486,35.957Z" transform="translate(-0.354 -4.566)"/>
                <path class="cls-6" d="M72.749,25.355l9.961-.128.038,2.938c1.6-1.775,3.422-3.553,7.064-3.6,5.792-.074,10.376,4.91,10.471,12.233v.088c.1,7.586-4.4,12.688-10.062,12.76a8.942,8.942,0,0,1-7.239-3.2l.125,9.734-9.961.128ZM90.63,37.142v-.088a4,4,0,1,0-7.986.1v.088a4,4,0,1,0,7.986-.1Z" transform="translate(-0.354 -4.566)"/>
                <path class="cls-6" d="M101.91,37.128v-.087c-.1-7.586,4.4-12.687,10.062-12.76a8.94,8.94,0,0,1,7.238,3.2l-.138-10.788,9.961-.128.411,32.011-9.961.128-.038-2.937c-1.6,1.774-3.422,3.553-7.064,3.6C106.588,49.437,102,44.452,101.91,37.128Zm17.638-.357v-.088a4,4,0,1,0-7.986.1v.088a4,4,0,1,0,7.986-.1Z" transform="translate(-0.354 -4.566)"/>
                <path class="cls-6" d="M131.461,41.749v-.088c-.061-4.779,3.458-7.5,9.031-7.571a18.681,18.681,0,0,1,5.672.8l0-.395c-.028-2.192-1.4-3.447-4.476-3.407a17.362,17.362,0,0,0-6.608,1.444l-1.84-6.6a27.4,27.4,0,0,1,10.07-1.884c4.871-.062,8.043.905,10.176,2.983,1.823,1.774,2.555,4.089,2.6,7.553l.175,13.638-9.961.128-.031-2.412a9.032,9.032,0,0,1-6.851,3.07C134.8,49.075,131.522,46.485,131.461,41.749ZM146.31,39.5l-.013-1.009a6.861,6.861,0,0,0-2.286-.365c-1.975.025-3.057,1.224-3.038,2.714v.088a2.224,2.224,0,0,0,2.312,2.295C145.041,43.2,146.339,41.777,146.31,39.5Z" transform="translate(-0.354 -4.566)"/>
                <path class="cls-6" d="M160.844,40.144l-.105-8.244-2.809.036-.1-7.674,2.809-.036-.077-6.007,9.961-.128L170.6,24.1l5.529-.071.1,7.674-5.529.071.078,6.051c.023,1.8.865,2.445,2.445,2.424a7.478,7.478,0,0,0,3.019-.784l.1,7.674a14.38,14.38,0,0,1-6.345,1.441C164.114,48.654,160.92,45.976,160.844,40.144Z" transform="translate(-0.354 -4.566)"/>
                <path class="cls-6" d="M177.821,36.11v-.088c-.092-7.147,4.972-12.651,12.169-12.743,8.513-.109,12.538,5.76,12.631,13.039.007.526.015,1.141-.022,1.667l-15.4.2a4.481,4.481,0,0,0,4.561,3.143c1.8-.023,3.28-.875,4.839-2.518L202,42.993a12.963,12.963,0,0,1-10.859,5.358C183.29,48.452,177.917,43.565,177.821,36.11ZM193.5,33.716c-.249-2.277-1.625-3.576-3.381-3.553-1.668.021-2.834,1.44-3.113,3.637Z" transform="translate(-0.354 -4.566)"/>
                <path class="cls-6" d="M225.443,36.463,213.6,16.792l11.5-.148,5.4,10.019,5.18-10.154,11.365-.146L235.711,36.2l.141,11.006-10.269.132Z" transform="translate(-0.354 -4.566)"/>
                <path class="cls-6" d="M247.371,35.173v-.088c-.087-6.753,5.456-12.613,13.354-12.714,7.854-.1,13.5,5.527,13.587,12.281v.087c.086,6.753-5.456,12.614-13.354,12.715C253.1,47.555,247.458,41.926,247.371,35.173Zm17.376-.223v-.088a4.09,4.09,0,0,0-4-4.2,3.968,3.968,0,0,0-3.809,4.215v.087a4.09,4.09,0,0,0,4,4.2A3.968,3.968,0,0,0,264.748,34.95Z" transform="translate(-0.354 -4.566)"/>
                <path class="cls-6" d="M276.467,38.528l-.2-15.787,9.961-.128.162,12.585c.026,2.061,1.27,3.229,2.762,3.21a2.957,2.957,0,0,0,2.811-3.282L291.8,22.542l9.961-.128.307,23.942-9.961.128-.041-3.2a9.17,9.17,0,0,1-7.279,3.865C279.739,47.213,276.537,43.921,276.467,38.528Z" transform="translate(-0.354 -4.566)"/>
                <path class="cls-6" d="M304.787,22.375l9.961-.128.062,4.824c1.319-3.262,3.485-5.4,7.438-5.271l.135,10.568-1.053.013c-4.213.054-6.42,2.407-6.353,7.713l.078,6.1-9.961.128Z" transform="translate(-0.354 -4.566)"/>
              </g>
            </g>
          </g>
          <g>
            <g class="cls-2">
              <g>
                <path class="cls-7" d="M23.212,52.924l9.868-.126,12.934,29.8-10.8.139-1.625-3.974-10.422.134-1.48,4.014-10.634.136Zm7.815,18.812-2.815-7.188-2.629,7.258Z" transform="translate(-0.354 -4.566)"/>
                <path class="cls-7" d="M46.16,71.117v-.085c-.083-6.5,4.949-12.218,12.521-12.315A11.1,11.1,0,0,1,69.268,65l-6.883,4A3.732,3.732,0,0,0,58.952,66.7c-2.042.026-3.55,1.831-3.521,4.125v.085c.031,2.422,1.585,4.145,3.5,4.121,1.7-.022,2.669-.884,3.586-2.384l7.07,3.9c-2.034,3.894-5.534,6.4-11.063,6.474A12.041,12.041,0,0,1,46.16,71.117Z" transform="translate(-0.354 -4.566)"/>
                <path class="cls-7" d="M70.318,70.807v-.085c-.083-6.5,4.949-12.218,12.521-12.315a11.1,11.1,0,0,1,10.589,6.281l-6.883,4a3.731,3.731,0,0,0-3.433-2.293c-2.042.026-3.55,1.831-3.521,4.125V70.6c.031,2.422,1.585,4.145,3.5,4.12,1.7-.022,2.669-.884,3.586-2.383l7.07,3.9c-2.034,3.894-5.534,6.4-11.063,6.474A12.041,12.041,0,0,1,70.318,70.807Z" transform="translate(-0.354 -4.566)"/>
                <path class="cls-7" d="M94.476,70.454v-.085c-.084-6.543,5.289-12.222,12.946-12.32,7.614-.1,13.088,5.356,13.172,11.9v.085c.084,6.544-5.289,12.223-12.946,12.321C100.033,82.452,94.56,77,94.476,70.454Zm16.846-.216v-.085a3.964,3.964,0,0,0-3.882-4.072,3.846,3.846,0,0,0-3.691,4.085v.085a3.963,3.963,0,0,0,3.881,4.073A3.846,3.846,0,0,0,111.321,70.237Z" transform="translate(-0.354 -4.566)"/>
                <path class="cls-7" d="M122.679,73.7l-.2-15.3,9.656-.124.157,12.2c.025,2,1.231,3.129,2.678,3.11a2.866,2.866,0,0,0,2.725-3.18l-.157-12.2,9.656-.124.3,23.2-9.656.124-.04-3.1a8.889,8.889,0,0,1-7.057,3.745C125.851,82.12,122.747,78.931,122.679,73.7Z" transform="translate(-0.354 -4.566)"/>
                <path class="cls-7" d="M150.128,58.052l9.657-.124.042,3.229a8.985,8.985,0,0,1,7.055-3.873c4.892-.063,8,3.127,8.063,8.354l.2,15.3-9.656.124-.157-12.2c-.025-2-1.231-3.129-2.677-3.11a2.865,2.865,0,0,0-2.725,3.18l.157,12.2-9.657.124Z" transform="translate(-0.354 -4.566)"/>
                <path class="cls-7" d="M179.588,73.1l-.1-7.988-2.722.035-.1-7.436,2.722-.035-.075-5.821,9.657-.124.075,5.821,5.36-.069.1,7.436-5.36.069.075,5.864c.022,1.742.838,2.369,2.37,2.349a7.26,7.26,0,0,0,2.926-.759l.1,7.436a13.943,13.943,0,0,1-6.151,1.4C182.758,81.347,179.661,78.752,179.588,73.1Z" transform="translate(-0.354 -4.566)"/>
                <path class="cls-7" d="M207.718,50.767l9.954-.128.382,29.745-9.954.128Z" transform="translate(-0.354 -4.566)"/>
                <path class="cls-7" d="M221.03,57.141l9.656-.124.042,3.229a8.986,8.986,0,0,1,7.055-3.872c4.892-.063,8,3.127,8.063,8.354l.2,15.3-9.656.124-.157-12.2c-.025-2-1.231-3.128-2.677-3.11a2.865,2.865,0,0,0-2.725,3.179l.157,12.2-9.656.124Z" transform="translate(-0.354 -4.566)"/>
                <path class="cls-7" d="M250.388,64.2l-2.723.035-.1-7.436,2.723-.035a8.151,8.151,0,0,1,2.009-5.933c1.553-1.593,3.587-2.256,6.778-2.3A21.018,21.018,0,0,1,265,49.1l.078,6.034a13.37,13.37,0,0,0-3.109-.3c-1.489.019-2.247.624-2.231,1.9l0,.17,5.36-.069.092,7.181-5.147.066.2,15.765-9.656.124Z" transform="translate(-0.354 -4.566)"/>
                <path class="cls-7" d="M266.093,68.25v-.085c-.084-6.543,5.289-12.222,12.946-12.32,7.614-.1,13.088,5.356,13.172,11.9v.085c.084,6.544-5.289,12.223-12.946,12.321C271.651,80.248,266.177,74.794,266.093,68.25Zm16.845-.216v-.085a3.963,3.963,0,0,0-3.881-4.072,3.845,3.845,0,0,0-3.691,4.084v.085a3.964,3.964,0,0,0,3.881,4.073A3.846,3.846,0,0,0,282.939,68.034Z" transform="translate(-0.354 -4.566)"/>
                <path class="cls-7" d="M294.271,56.2l9.656-.124.06,4.674c1.278-3.161,3.379-5.228,7.209-5.107l.131,10.24-1.021.013c-4.083.052-6.224,2.333-6.158,7.474l.076,5.906-9.656.124Z" transform="translate(-0.354 -4.566)"/>
                <path class="cls-7" d="M312.9,55.961l9.657-.124.04,3.1a8.849,8.849,0,0,1,6.971-3.744,7.259,7.259,0,0,1,6.9,3.736,9.964,9.964,0,0,1,7.82-3.925c4.977-.064,8.081,3.126,8.148,8.353l.2,15.3-9.656.124-.158-12.28c-.025-1.954-1.188-3.044-2.592-3.026a2.777,2.777,0,0,0-2.641,3.094l.158,12.28-9.656.124-.158-12.28c-.025-1.954-1.187-3.044-2.591-3.026a2.776,2.776,0,0,0-2.641,3.093l.158,12.28-9.657.124Z" transform="translate(-0.354 -4.566)"/>
                <path class="cls-7" d="M354.413,72.045v-.085c-.06-4.631,3.353-7.268,8.755-7.337a18.125,18.125,0,0,1,5.5.779l0-.382c-.027-2.124-1.361-3.339-4.339-3.3a16.833,16.833,0,0,0-6.407,1.4l-1.784-6.395a26.586,26.586,0,0,1,9.762-1.826c4.722-.061,7.8.877,9.865,2.891,1.767,1.719,2.477,3.963,2.52,7.319l.17,13.215-9.657.124-.03-2.337a8.759,8.759,0,0,1-6.642,2.975C357.652,79.144,354.472,76.635,354.413,72.045Zm14.394-2.182-.012-.978a6.654,6.654,0,0,0-2.216-.354c-1.915.024-2.963,1.186-2.945,2.63v.085a2.155,2.155,0,0,0,2.241,2.224C367.577,73.449,368.835,72.073,368.807,69.864Z" transform="translate(-0.354 -4.566)"/>
                <path class="cls-7" d="M382.894,70.49l-.1-7.988-2.723.035-.1-7.436,2.723-.035-.075-5.821,9.656-.124.075,5.821,5.36-.069.1,7.436-5.36.069.075,5.864c.022,1.742.839,2.369,2.37,2.349a7.25,7.25,0,0,0,2.926-.759l.1,7.436a13.937,13.937,0,0,1-6.151,1.4C386.064,78.736,382.966,76.142,382.894,70.49Z" transform="translate(-0.354 -4.566)"/>
                <path class="cls-7" d="M399.735,47.026l10-.128.079,6.162-10,.128Zm.271,7.816,9.656-.124.3,23.2-9.656.124Z" transform="translate(-0.354 -4.566)"/>
                <path class="cls-7" d="M412.107,66.375V66.29c-.084-6.543,5.289-12.222,12.946-12.32,7.614-.1,13.087,5.356,13.171,11.9l0,.085c.084,6.544-5.289,12.223-12.946,12.321C417.665,78.373,412.191,72.919,412.107,66.375Zm16.846-.216v-.085A3.965,3.965,0,0,0,425.07,62a3.845,3.845,0,0,0-3.691,4.084v.085a3.964,3.964,0,0,0,3.882,4.073A3.846,3.846,0,0,0,428.953,66.159Z" transform="translate(-0.354 -4.566)"/>
                <path class="cls-7" d="M440.284,54.326l9.656-.124.042,3.229a8.987,8.987,0,0,1,7.056-3.873c4.892-.062,8,3.127,8.063,8.354l.2,15.3-9.657.124-.156-12.2c-.026-2-1.231-3.128-2.678-3.11a2.865,2.865,0,0,0-2.725,3.179l.157,12.2-9.656.124Z" transform="translate(-0.354 -4.566)"/>
                <path class="cls-7" d="M467.8,53.8l-.082-6.374,10.806-.139.082,6.374-2.8,14.146-4.85.062Zm.67,15.715,9.869-.126.1,7.649-9.869.126Z" transform="translate(-0.354 -4.566)"/>
              </g>
              <g>
                <path class="cls-4" d="M23.212,52.924l9.868-.126,12.934,29.8-10.8.139-1.625-3.974-10.422.134-1.48,4.014-10.634.136Zm7.815,18.812-2.815-7.188-2.629,7.258Z" transform="translate(-0.354 -4.566)"/>
                <path class="cls-4" d="M46.16,71.117v-.085c-.083-6.5,4.949-12.218,12.521-12.315A11.1,11.1,0,0,1,69.268,65l-6.883,4A3.732,3.732,0,0,0,58.952,66.7c-2.042.026-3.55,1.831-3.521,4.125v.085c.031,2.422,1.585,4.145,3.5,4.121,1.7-.022,2.669-.884,3.586-2.384l7.07,3.9c-2.034,3.894-5.534,6.4-11.063,6.474A12.041,12.041,0,0,1,46.16,71.117Z" transform="translate(-0.354 -4.566)"/>
                <path class="cls-4" d="M70.318,70.807v-.085c-.083-6.5,4.949-12.218,12.521-12.315a11.1,11.1,0,0,1,10.589,6.281l-6.883,4a3.731,3.731,0,0,0-3.433-2.293c-2.042.026-3.55,1.831-3.521,4.125V70.6c.031,2.422,1.585,4.145,3.5,4.12,1.7-.022,2.669-.884,3.586-2.383l7.07,3.9c-2.034,3.894-5.534,6.4-11.063,6.474A12.041,12.041,0,0,1,70.318,70.807Z" transform="translate(-0.354 -4.566)"/>
                <path class="cls-4" d="M94.476,70.454v-.085c-.084-6.543,5.289-12.222,12.946-12.32,7.614-.1,13.088,5.356,13.172,11.9v.085c.084,6.544-5.289,12.223-12.946,12.321C100.033,82.452,94.56,77,94.476,70.454Zm16.846-.216v-.085a3.964,3.964,0,0,0-3.882-4.072,3.846,3.846,0,0,0-3.691,4.085v.085a3.963,3.963,0,0,0,3.881,4.073A3.846,3.846,0,0,0,111.321,70.237Z" transform="translate(-0.354 -4.566)"/>
                <path class="cls-4" d="M122.679,73.7l-.2-15.3,9.656-.124.157,12.2c.025,2,1.231,3.129,2.678,3.11a2.866,2.866,0,0,0,2.725-3.18l-.157-12.2,9.656-.124.3,23.2-9.656.124-.04-3.1a8.889,8.889,0,0,1-7.057,3.745C125.851,82.12,122.747,78.931,122.679,73.7Z" transform="translate(-0.354 -4.566)"/>
                <path class="cls-4" d="M150.128,58.052l9.657-.124.042,3.229a8.985,8.985,0,0,1,7.055-3.873c4.892-.063,8,3.127,8.063,8.354l.2,15.3-9.656.124-.157-12.2c-.025-2-1.231-3.129-2.677-3.11a2.865,2.865,0,0,0-2.725,3.18l.157,12.2-9.657.124Z" transform="translate(-0.354 -4.566)"/>
                <path class="cls-4" d="M179.588,73.1l-.1-7.988-2.722.035-.1-7.436,2.722-.035-.075-5.821,9.657-.124.075,5.821,5.36-.069.1,7.436-5.36.069.075,5.864c.022,1.742.838,2.369,2.37,2.349a7.26,7.26,0,0,0,2.926-.759l.1,7.436a13.943,13.943,0,0,1-6.151,1.4C182.758,81.347,179.661,78.752,179.588,73.1Z" transform="translate(-0.354 -4.566)"/>
                <path class="cls-4" d="M207.718,50.767l9.954-.128.382,29.745-9.954.128Z" transform="translate(-0.354 -4.566)"/>
                <path class="cls-4" d="M221.03,57.141l9.656-.124.042,3.229a8.986,8.986,0,0,1,7.055-3.872c4.892-.063,8,3.127,8.063,8.354l.2,15.3-9.656.124-.157-12.2c-.025-2-1.231-3.128-2.677-3.11a2.865,2.865,0,0,0-2.725,3.179l.157,12.2-9.656.124Z" transform="translate(-0.354 -4.566)"/>
                <path class="cls-4" d="M250.388,64.2l-2.723.035-.1-7.436,2.723-.035a8.151,8.151,0,0,1,2.009-5.933c1.553-1.593,3.587-2.256,6.778-2.3A21.018,21.018,0,0,1,265,49.1l.078,6.034a13.37,13.37,0,0,0-3.109-.3c-1.489.019-2.247.624-2.231,1.9l0,.17,5.36-.069.092,7.181-5.147.066.2,15.765-9.656.124Z" transform="translate(-0.354 -4.566)"/>
                <path class="cls-4" d="M266.093,68.25v-.085c-.084-6.543,5.289-12.222,12.946-12.32,7.614-.1,13.088,5.356,13.172,11.9v.085c.084,6.544-5.289,12.223-12.946,12.321C271.651,80.248,266.177,74.794,266.093,68.25Zm16.845-.216v-.085a3.963,3.963,0,0,0-3.881-4.072,3.845,3.845,0,0,0-3.691,4.084v.085a3.964,3.964,0,0,0,3.881,4.073A3.846,3.846,0,0,0,282.939,68.034Z" transform="translate(-0.354 -4.566)"/>
                <path class="cls-4" d="M294.271,56.2l9.656-.124.06,4.674c1.278-3.161,3.379-5.228,7.209-5.107l.131,10.24-1.021.013c-4.083.052-6.224,2.333-6.158,7.474l.076,5.906-9.656.124Z" transform="translate(-0.354 -4.566)"/>
                <path class="cls-4" d="M312.9,55.961l9.657-.124.04,3.1a8.849,8.849,0,0,1,6.971-3.744,7.259,7.259,0,0,1,6.9,3.736,9.964,9.964,0,0,1,7.82-3.925c4.977-.064,8.081,3.126,8.148,8.353l.2,15.3-9.656.124-.158-12.28c-.025-1.954-1.188-3.044-2.592-3.026a2.777,2.777,0,0,0-2.641,3.094l.158,12.28-9.656.124-.158-12.28c-.025-1.954-1.187-3.044-2.591-3.026a2.776,2.776,0,0,0-2.641,3.093l.158,12.28-9.657.124Z" transform="translate(-0.354 -4.566)"/>
                <path class="cls-4" d="M354.413,72.045v-.085c-.06-4.631,3.353-7.268,8.755-7.337a18.125,18.125,0,0,1,5.5.779l0-.382c-.027-2.124-1.361-3.339-4.339-3.3a16.833,16.833,0,0,0-6.407,1.4l-1.784-6.395a26.586,26.586,0,0,1,9.762-1.826c4.722-.061,7.8.877,9.865,2.891,1.767,1.719,2.477,3.963,2.52,7.319l.17,13.215-9.657.124-.03-2.337a8.759,8.759,0,0,1-6.642,2.975C357.652,79.144,354.472,76.635,354.413,72.045Zm14.394-2.182-.012-.978a6.654,6.654,0,0,0-2.216-.354c-1.915.024-2.963,1.186-2.945,2.63v.085a2.155,2.155,0,0,0,2.241,2.224C367.577,73.449,368.835,72.073,368.807,69.864Z" transform="translate(-0.354 -4.566)"/>
                <path class="cls-4" d="M382.894,70.49l-.1-7.988-2.723.035-.1-7.436,2.723-.035-.075-5.821,9.656-.124.075,5.821,5.36-.069.1,7.436-5.36.069.075,5.864c.022,1.742.839,2.369,2.37,2.349a7.25,7.25,0,0,0,2.926-.759l.1,7.436a13.937,13.937,0,0,1-6.151,1.4C386.064,78.736,382.966,76.142,382.894,70.49Z" transform="translate(-0.354 -4.566)"/>
                <path class="cls-4" d="M399.735,47.026l10-.128.079,6.162-10,.128Zm.271,7.816,9.656-.124.3,23.2-9.656.124Z" transform="translate(-0.354 -4.566)"/>
                <path class="cls-4" d="M412.107,66.375V66.29c-.084-6.543,5.289-12.222,12.946-12.32,7.614-.1,13.087,5.356,13.171,11.9l0,.085c.084,6.544-5.289,12.223-12.946,12.321C417.665,78.373,412.191,72.919,412.107,66.375Zm16.846-.216v-.085A3.965,3.965,0,0,0,425.07,62a3.845,3.845,0,0,0-3.691,4.084v.085a3.964,3.964,0,0,0,3.882,4.073A3.846,3.846,0,0,0,428.953,66.159Z" transform="translate(-0.354 -4.566)"/>
                <path class="cls-4" d="M440.284,54.326l9.656-.124.042,3.229a8.987,8.987,0,0,1,7.056-3.873c4.892-.062,8,3.127,8.063,8.354l.2,15.3-9.657.124-.156-12.2c-.026-2-1.231-3.128-2.678-3.11a2.865,2.865,0,0,0-2.725,3.179l.157,12.2-9.656.124Z" transform="translate(-0.354 -4.566)"/>
                <path class="cls-4" d="M467.8,53.8l-.082-6.374,10.806-.139.082,6.374-2.8,14.146-4.85.062Zm.67,15.715,9.869-.126.1,7.649-9.869.126Z" transform="translate(-0.354 -4.566)"/>
              </g>
            </g>
            <g>
              <g>
                <path class="cls-8" d="M21.086,50.8l9.868-.126,12.934,29.8-10.8.139L31.458,76.63l-10.422.134-1.48,4.014-10.634.136ZM28.9,69.608,26.085,62.42l-2.629,7.258Z" transform="translate(-0.354 -4.566)"/>
                <path class="cls-8" d="M44.033,68.989V68.9c-.083-6.5,4.949-12.218,12.521-12.315A11.1,11.1,0,0,1,67.141,62.87l-6.883,4a3.732,3.732,0,0,0-3.433-2.293c-2.042.026-3.55,1.831-3.521,4.125v.085c.031,2.422,1.585,4.145,3.5,4.121,1.7-.022,2.669-.884,3.586-2.384l7.07,3.9c-2.034,3.894-5.534,6.4-11.063,6.474A12.041,12.041,0,0,1,44.033,68.989Z" transform="translate(-0.354 -4.566)"/>
                <path class="cls-8" d="M68.191,68.679v-.085c-.083-6.5,4.949-12.218,12.521-12.315A11.1,11.1,0,0,1,91.3,62.56l-6.883,4a3.731,3.731,0,0,0-3.433-2.293c-2.042.026-3.55,1.831-3.521,4.125v.085c.031,2.422,1.585,4.145,3.5,4.12,1.7-.022,2.669-.884,3.586-2.383l7.07,3.9c-2.034,3.894-5.534,6.4-11.063,6.474A12.041,12.041,0,0,1,68.191,68.679Z" transform="translate(-0.354 -4.566)"/>
                <path class="cls-8" d="M92.349,68.326v-.085c-.084-6.543,5.289-12.222,12.946-12.32,7.614-.1,13.088,5.356,13.172,11.9v.085c.084,6.544-5.289,12.223-12.946,12.321C97.906,80.324,92.433,74.87,92.349,68.326Zm16.846-.216v-.085a3.964,3.964,0,0,0-3.882-4.072,3.846,3.846,0,0,0-3.691,4.085v.085a3.963,3.963,0,0,0,3.881,4.073A3.846,3.846,0,0,0,109.194,68.11Z" transform="translate(-0.354 -4.566)"/>
                <path class="cls-8" d="M120.552,71.577l-.2-15.3,9.656-.124.157,12.2c.025,2,1.231,3.129,2.678,3.11a2.866,2.866,0,0,0,2.725-3.18l-.157-12.2,9.656-.124.3,23.2-9.656.124-.04-3.1a8.889,8.889,0,0,1-7.057,3.745C123.724,79.993,120.62,76.8,120.552,71.577Z" transform="translate(-0.354 -4.566)"/>
                <path class="cls-8" d="M148,55.924l9.657-.124.042,3.229a8.985,8.985,0,0,1,7.055-3.873c4.892-.063,8,3.127,8.063,8.354l.2,15.3-9.656.124-.157-12.2c-.025-2-1.231-3.129-2.677-3.11a2.865,2.865,0,0,0-2.725,3.18l.157,12.2-9.657.124Z" transform="translate(-0.354 -4.566)"/>
                <path class="cls-8" d="M177.461,70.973l-.1-7.988-2.722.035-.1-7.436,2.722-.035-.075-5.821,9.657-.124.075,5.821,5.36-.069.1,7.436-5.36.069.075,5.864c.022,1.742.838,2.369,2.37,2.349a7.26,7.26,0,0,0,2.926-.759l.1,7.436a13.943,13.943,0,0,1-6.151,1.4C180.631,79.22,177.534,76.625,177.461,70.973Z" transform="translate(-0.354 -4.566)"/>
                <path class="cls-8" d="M205.591,48.64l9.954-.128.382,29.745-9.954.128Z" transform="translate(-0.354 -4.566)"/>
                <path class="cls-8" d="M218.9,55.014l9.656-.124.042,3.229a8.986,8.986,0,0,1,7.055-3.872c4.892-.063,8,3.127,8.063,8.354l.2,15.3-9.656.124-.157-12.2c-.025-2-1.231-3.128-2.677-3.11A2.865,2.865,0,0,0,228.7,65.9l.157,12.2-9.656.124Z" transform="translate(-0.354 -4.566)"/>
                <path class="cls-8" d="M248.261,62.074l-2.723.035-.1-7.436,2.723-.035a8.151,8.151,0,0,1,2.009-5.933c1.553-1.593,3.587-2.256,6.778-2.3a21.018,21.018,0,0,1,5.92.561L262.95,53a13.37,13.37,0,0,0-3.109-.3c-1.489.019-2.247.624-2.231,1.9l0,.17,5.36-.069.092,7.181-5.147.066.2,15.765-9.656.124Z" transform="translate(-0.354 -4.566)"/>
                <path class="cls-8" d="M263.966,66.123v-.085c-.084-6.543,5.289-12.222,12.946-12.32,7.614-.1,13.088,5.356,13.172,11.9V65.7c.084,6.544-5.289,12.223-12.946,12.321C269.524,78.121,264.05,72.666,263.966,66.123Zm16.845-.216v-.085a3.963,3.963,0,0,0-3.881-4.072,3.845,3.845,0,0,0-3.691,4.084v.085a3.964,3.964,0,0,0,3.881,4.073A3.846,3.846,0,0,0,280.812,65.906Z" transform="translate(-0.354 -4.566)"/>
                <path class="cls-8" d="M292.144,54.073l9.656-.124.06,4.674c1.278-3.161,3.379-5.228,7.209-5.107l.131,10.24-1.021.013c-4.083.052-6.224,2.333-6.158,7.474l.076,5.906-9.656.124Z" transform="translate(-0.354 -4.566)"/>
                <path class="cls-8" d="M310.773,53.834l9.657-.124.04,3.1a8.849,8.849,0,0,1,6.971-3.744,7.259,7.259,0,0,1,6.9,3.736,9.964,9.964,0,0,1,7.82-3.925c4.977-.064,8.081,3.126,8.148,8.353l.2,15.3-9.656.124-.158-12.28c-.025-1.954-1.188-3.044-2.592-3.026a2.777,2.777,0,0,0-2.641,3.094l.158,12.28-9.656.124-.158-12.28c-.025-1.954-1.187-3.044-2.591-3.026a2.776,2.776,0,0,0-2.641,3.093l.158,12.28-9.657.124Z" transform="translate(-0.354 -4.566)"/>
                <path class="cls-8" d="M352.286,69.918v-.085c-.06-4.631,3.353-7.268,8.755-7.337a18.125,18.125,0,0,1,5.5.779l0-.382c-.027-2.124-1.361-3.339-4.339-3.3a16.833,16.833,0,0,0-6.407,1.4L354,54.6a26.586,26.586,0,0,1,9.762-1.826c4.722-.061,7.8.877,9.865,2.891,1.767,1.719,2.477,3.963,2.52,7.319l.17,13.215-9.657.124-.03-2.337a8.759,8.759,0,0,1-6.642,2.975C355.525,77.016,352.345,74.508,352.286,69.918Zm14.394-2.182-.012-.978a6.654,6.654,0,0,0-2.216-.354c-1.915.024-2.963,1.186-2.945,2.63v.085a2.155,2.155,0,0,0,2.241,2.224C365.45,71.321,366.708,69.945,366.68,67.736Z" transform="translate(-0.354 -4.566)"/>
                <path class="cls-8" d="M380.767,68.362l-.1-7.988-2.723.035-.1-7.436,2.723-.035-.075-5.821,9.656-.124.075,5.821,5.36-.069.1,7.436-5.36.069.075,5.864c.022,1.742.839,2.369,2.37,2.349a7.25,7.25,0,0,0,2.926-.759l.1,7.436a13.937,13.937,0,0,1-6.151,1.4C383.937,76.609,380.839,74.014,380.767,68.362Z" transform="translate(-0.354 -4.566)"/>
                <path class="cls-8" d="M397.608,44.9l10-.128.079,6.162-10,.128Zm.271,7.816,9.656-.124.3,23.2-9.656.124Z" transform="translate(-0.354 -4.566)"/>
                <path class="cls-8" d="M409.981,64.248v-.085c-.084-6.543,5.289-12.222,12.946-12.32,7.614-.1,13.087,5.356,13.171,11.9l0,.085c.084,6.544-5.289,12.223-12.946,12.321C415.538,76.246,410.065,70.791,409.981,64.248Zm16.846-.216v-.085a3.965,3.965,0,0,0-3.882-4.072,3.845,3.845,0,0,0-3.691,4.084v.085a3.964,3.964,0,0,0,3.882,4.073A3.846,3.846,0,0,0,426.826,64.031Z" transform="translate(-0.354 -4.566)"/>
                <path class="cls-8" d="M438.157,52.2l9.656-.124.042,3.229a8.987,8.987,0,0,1,7.056-3.873c4.892-.062,8,3.127,8.063,8.354l.2,15.3-9.657.124-.156-12.2c-.026-2-1.231-3.128-2.678-3.11a2.865,2.865,0,0,0-2.725,3.179l.157,12.2-9.656.124Z" transform="translate(-0.354 -4.566)"/>
                <path class="cls-8" d="M465.673,51.675l-.082-6.374,10.806-.139.082,6.374-2.8,14.146-4.85.062Zm.67,15.715,9.869-.126.1,7.649-9.869.126Z" transform="translate(-0.354 -4.566)"/>
              </g>
              <g>
                <path class="cls-9" d="M21.086,50.8l9.868-.126,12.934,29.8-10.8.139L31.458,76.63l-10.422.134-1.48,4.014-10.634.136ZM28.9,69.608,26.085,62.42l-2.629,7.258Z" transform="translate(-0.354 -4.566)"/>
                <path class="cls-9" d="M44.033,68.989V68.9c-.083-6.5,4.949-12.218,12.521-12.315A11.1,11.1,0,0,1,67.141,62.87l-6.883,4a3.732,3.732,0,0,0-3.433-2.293c-2.042.026-3.55,1.831-3.521,4.125v.085c.031,2.422,1.585,4.145,3.5,4.121,1.7-.022,2.669-.884,3.586-2.384l7.07,3.9c-2.034,3.894-5.534,6.4-11.063,6.474A12.041,12.041,0,0,1,44.033,68.989Z" transform="translate(-0.354 -4.566)"/>
                <path class="cls-9" d="M68.191,68.679v-.085c-.083-6.5,4.949-12.218,12.521-12.315A11.1,11.1,0,0,1,91.3,62.56l-6.883,4a3.731,3.731,0,0,0-3.433-2.293c-2.042.026-3.55,1.831-3.521,4.125v.085c.031,2.422,1.585,4.145,3.5,4.12,1.7-.022,2.669-.884,3.586-2.383l7.07,3.9c-2.034,3.894-5.534,6.4-11.063,6.474A12.041,12.041,0,0,1,68.191,68.679Z" transform="translate(-0.354 -4.566)"/>
                <path class="cls-9" d="M92.349,68.326v-.085c-.084-6.543,5.289-12.222,12.946-12.32,7.614-.1,13.088,5.356,13.172,11.9v.085c.084,6.544-5.289,12.223-12.946,12.321C97.906,80.324,92.433,74.87,92.349,68.326Zm16.846-.216v-.085a3.964,3.964,0,0,0-3.882-4.072,3.846,3.846,0,0,0-3.691,4.085v.085a3.963,3.963,0,0,0,3.881,4.073A3.846,3.846,0,0,0,109.194,68.11Z" transform="translate(-0.354 -4.566)"/>
                <path class="cls-9" d="M120.552,71.577l-.2-15.3,9.656-.124.157,12.2c.025,2,1.231,3.129,2.678,3.11a2.866,2.866,0,0,0,2.725-3.18l-.157-12.2,9.656-.124.3,23.2-9.656.124-.04-3.1a8.889,8.889,0,0,1-7.057,3.745C123.724,79.993,120.62,76.8,120.552,71.577Z" transform="translate(-0.354 -4.566)"/>
                <path class="cls-9" d="M148,55.924l9.657-.124.042,3.229a8.985,8.985,0,0,1,7.055-3.873c4.892-.063,8,3.127,8.063,8.354l.2,15.3-9.656.124-.157-12.2c-.025-2-1.231-3.129-2.677-3.11a2.865,2.865,0,0,0-2.725,3.18l.157,12.2-9.657.124Z" transform="translate(-0.354 -4.566)"/>
                <path class="cls-9" d="M177.461,70.973l-.1-7.988-2.722.035-.1-7.436,2.722-.035-.075-5.821,9.657-.124.075,5.821,5.36-.069.1,7.436-5.36.069.075,5.864c.022,1.742.838,2.369,2.37,2.349a7.26,7.26,0,0,0,2.926-.759l.1,7.436a13.943,13.943,0,0,1-6.151,1.4C180.631,79.22,177.534,76.625,177.461,70.973Z" transform="translate(-0.354 -4.566)"/>
                <path class="cls-9" d="M205.591,48.64l9.954-.128.382,29.745-9.954.128Z" transform="translate(-0.354 -4.566)"/>
                <path class="cls-9" d="M218.9,55.014l9.656-.124.042,3.229a8.986,8.986,0,0,1,7.055-3.872c4.892-.063,8,3.127,8.063,8.354l.2,15.3-9.656.124-.157-12.2c-.025-2-1.231-3.128-2.677-3.11A2.865,2.865,0,0,0,228.7,65.9l.157,12.2-9.656.124Z" transform="translate(-0.354 -4.566)"/>
                <path class="cls-9" d="M248.261,62.074l-2.723.035-.1-7.436,2.723-.035a8.151,8.151,0,0,1,2.009-5.933c1.553-1.593,3.587-2.256,6.778-2.3a21.018,21.018,0,0,1,5.92.561L262.95,53a13.37,13.37,0,0,0-3.109-.3c-1.489.019-2.247.624-2.231,1.9l0,.17,5.36-.069.092,7.181-5.147.066.2,15.765-9.656.124Z" transform="translate(-0.354 -4.566)"/>
                <path class="cls-9" d="M263.966,66.123v-.085c-.084-6.543,5.289-12.222,12.946-12.32,7.614-.1,13.088,5.356,13.172,11.9V65.7c.084,6.544-5.289,12.223-12.946,12.321C269.524,78.121,264.05,72.666,263.966,66.123Zm16.845-.216v-.085a3.963,3.963,0,0,0-3.881-4.072,3.845,3.845,0,0,0-3.691,4.084v.085a3.964,3.964,0,0,0,3.881,4.073A3.846,3.846,0,0,0,280.812,65.906Z" transform="translate(-0.354 -4.566)"/>
                <path class="cls-9" d="M292.144,54.073l9.656-.124.06,4.674c1.278-3.161,3.379-5.228,7.209-5.107l.131,10.24-1.021.013c-4.083.052-6.224,2.333-6.158,7.474l.076,5.906-9.656.124Z" transform="translate(-0.354 -4.566)"/>
                <path class="cls-9" d="M310.773,53.834l9.657-.124.04,3.1a8.849,8.849,0,0,1,6.971-3.744,7.259,7.259,0,0,1,6.9,3.736,9.964,9.964,0,0,1,7.82-3.925c4.977-.064,8.081,3.126,8.148,8.353l.2,15.3-9.656.124-.158-12.28c-.025-1.954-1.188-3.044-2.592-3.026a2.777,2.777,0,0,0-2.641,3.094l.158,12.28-9.656.124-.158-12.28c-.025-1.954-1.187-3.044-2.591-3.026a2.776,2.776,0,0,0-2.641,3.093l.158,12.28-9.657.124Z" transform="translate(-0.354 -4.566)"/>
                <path class="cls-9" d="M352.286,69.918v-.085c-.06-4.631,3.353-7.268,8.755-7.337a18.125,18.125,0,0,1,5.5.779l0-.382c-.027-2.124-1.361-3.339-4.339-3.3a16.833,16.833,0,0,0-6.407,1.4L354,54.6a26.586,26.586,0,0,1,9.762-1.826c4.722-.061,7.8.877,9.865,2.891,1.767,1.719,2.477,3.963,2.52,7.319l.17,13.215-9.657.124-.03-2.337a8.759,8.759,0,0,1-6.642,2.975C355.525,77.016,352.345,74.508,352.286,69.918Zm14.394-2.182-.012-.978a6.654,6.654,0,0,0-2.216-.354c-1.915.024-2.963,1.186-2.945,2.63v.085a2.155,2.155,0,0,0,2.241,2.224C365.45,71.321,366.708,69.945,366.68,67.736Z" transform="translate(-0.354 -4.566)"/>
                <path class="cls-9" d="M380.767,68.362l-.1-7.988-2.723.035-.1-7.436,2.723-.035-.075-5.821,9.656-.124.075,5.821,5.36-.069.1,7.436-5.36.069.075,5.864c.022,1.742.839,2.369,2.37,2.349a7.25,7.25,0,0,0,2.926-.759l.1,7.436a13.937,13.937,0,0,1-6.151,1.4C383.937,76.609,380.839,74.014,380.767,68.362Z" transform="translate(-0.354 -4.566)"/>
                <path class="cls-9" d="M397.608,44.9l10-.128.079,6.162-10,.128Zm.271,7.816,9.656-.124.3,23.2-9.656.124Z" transform="translate(-0.354 -4.566)"/>
                <path class="cls-9" d="M409.981,64.248v-.085c-.084-6.543,5.289-12.222,12.946-12.32,7.614-.1,13.087,5.356,13.171,11.9l0,.085c.084,6.544-5.289,12.223-12.946,12.321C415.538,76.246,410.065,70.791,409.981,64.248Zm16.846-.216v-.085a3.965,3.965,0,0,0-3.882-4.072,3.845,3.845,0,0,0-3.691,4.084v.085a3.964,3.964,0,0,0,3.882,4.073A3.846,3.846,0,0,0,426.826,64.031Z" transform="translate(-0.354 -4.566)"/>
                <path class="cls-9" d="M438.157,52.2l9.656-.124.042,3.229a8.987,8.987,0,0,1,7.056-3.873c4.892-.062,8,3.127,8.063,8.354l.2,15.3-9.657.124-.156-12.2c-.026-2-1.231-3.128-2.678-3.11a2.865,2.865,0,0,0-2.725,3.179l.157,12.2-9.656.124Z" transform="translate(-0.354 -4.566)"/>
                <path class="cls-9" d="M465.673,51.675l-.082-6.374,10.806-.139.082,6.374-2.8,14.146-4.85.062Zm.67,15.715,9.869-.126.1,7.649-9.869.126Z" transform="translate(-0.354 -4.566)"/>
              </g>
            </g>
          </g>
        </g>
      </g>
    </g>
  </g>
</svg>
